/* XPM */
static char *result[] = {
/* columns rows colors chars-per-pixel */
"32 32 49 1 ",
"  c #C1D0D0",
". c #C0C0B5",
"X c #BC9F7A",
"o c #BB8E5F",
"O c #BA8753",
"+ c #BA834C",
"@ c #BC9D79",
"# c #BFBFB4",
"$ c #C2D0D0",
"% c #BFBCAE",
"& c #B7844E",
"* c #B27A44",
"= c #AF7741",
"- c #AE7640",
"; c #B78553",
": c #BFBDB0",
"> c #B99269",
", c #B8936A",
"< c #B27F50",
"1 c #B07B48",
"2 c #AF7945",
"3 c #AD7640",
"4 c #A9733E",
"5 c #A5703D",
"6 c #A36F3D",
"7 c #AA733F",
"8 c #9F6C3B",
"9 c #9B6A3B",
"0 c #9A693B",
"q c #A8723E",
"w c #9D6B3B",
"e c #9F6C3C",
"r c #A06D3D",
"t c #9F6D3D",
"y c #A9733F",
"u c #A16D3D",
"i c #AC743F",
"p c #A5703E",
"a c #AF7A47",
"s c #AE7944",
"d c #B18D66",
"f c #B18E69",
"g c #B8B6AA",
"h c #AE7B4B",
"j c #B8B7AD",
"k c #C0CECF",
"l c #BDBDB3",
"z c #B28D65",
"x c #AD7743",
/* pixels */
" .XoO++++++++++++++++++++++Oo@#$",
"%&*=------------------------=*;:",
">-----------------------------=,",
"<------------------------------1",
"2--34566666666666666666666543---",
"---78900000000000000000000987---",
"---qwerrrrrrrrrrrrrrrrrrrrewq---",
"---qtrrrrrrrrrrrrrrrrrrrrrrty---",
"---yrrrrrrrrrrrrrrrrrrrrrrrry---",
"---yrrrrrrrrrrrrrrrrrrrrrrrry---",
"---yrrrrrrrrrrrrrrrrrrrrrrrry---",
"---yrrrrrrrrrrrrrrrrrrrrrrrry---",
"---yrrrrrrrrrrrrrrrrrrrrrrrry---",
"---yrrrrrrrrrrrrrrrrrrrrrrrry---",
"---yrrrrrrrrrrrrrrrrrrrrrrrry---",
"---yrrrrrrrrrrrrrrrrrrrrrrrry---",
"---yrrrrrrrrrrrrrrrrrrrrrrrry---",
"---yrrrrrrrrrrrrrrrrrrrrrrrry---",
"---yrrrrrrrrrrrrrrrrrrrrrrrry---",
"---yrrrrrrrrrrrrrrrrrrrrrrrry---",
"---yrrrrrrrrrrrrrrrrrrrrrrrry---",
"---yrrrrrrrrrrrrrrrrrrrrrrrry---",
"---yrrrrrrrrrrrrrrrrrrrrrrrry---",
"---yrrrrrrrrrrrrrrrrrrrrrrrry---",
"---yrrrrrrrrrrrrrrrrrrrrrrrry---",
"---yrrrrrrrrrrrrrrrrrrrrrrrry---",
"---7urrrrrrrrrrrrrrrrrrrrrru7---",
"---iprrrrrrrrrrrrrrrrrrrrrrpi---",
"a---i7yyyyyyyyyyyyyyyyyyyy7i---s",
"d------------------------------f",
"gh----------------------------hj",
"klzx------------------------xzlk"
};
