/* XPM */
static char *result[] = {
/* columns rows colors chars-per-pixel */
"32 32 240 2 ",
"   c #211E1F",
".  c #221F21",
"X  c #2B2728",
"o  c #332F30",
"O  c #363436",
"+  c #171314",
"@  c #71310A",
"#  c #423E3F",
"$  c #572A0F",
"%  c #295A1B",
"&  c #32511A",
"*  c #2C621C",
"=  c #355929",
"-  c #356D22",
";  c #3A7327",
":  c #1F4F14",
">  c #595A16",
",  c #716D06",
"<  c #746E0B",
"1  c #405D33",
"2  c #524E30",
"3  c #427C2C",
"4  c #4B6839",
"5  c #467830",
"6  c #497333",
"7  c #7B7733",
"8  c #705624",
"9  c #403E40",
"0  c #3F5740",
"q  c #4A4848",
"w  c #5C595A",
"e  c #545554",
"r  c #465448",
"t  c #527654",
"y  c #71784E",
"u  c #615F60",
"i  c #686565",
"p  c #737270",
"a  c #867B18",
"s  c #837836",
"d  c #955B26",
"f  c #8D7248",
"g  c #AD704C",
"h  c #A57764",
"j  c #58841F",
"k  c #4C8536",
"l  c #568C3A",
"z  c #569538",
"x  c #5BA43B",
"c  c #64AB3C",
"v  c #708D2C",
"b  c #5D8B51",
"n  c #779E5D",
"m  c #6B9251",
"M  c #6AA948",
"N  c #67B644",
"B  c #72BF49",
"V  c #73AC53",
"C  c #7AB658",
"Z  c #74A247",
"A  c #708E68",
"S  c #7AA46E",
"D  c #77C24C",
"F  c #7BC352",
"G  c #8D8803",
"H  c #9A9501",
"J  c #A49B00",
"K  c #A19C10",
"L  c #A9A304",
"P  c #B1A802",
"I  c #BDB803",
"U  c #B6A916",
"Y  c #A8A51A",
"T  c #94953A",
"R  c #938C22",
"E  c #A49C34",
"W  c #8CAF34",
"Q  c #B9B329",
"!  c #B9AD32",
"~  c #B2A92F",
"^  c #C6BC05",
"/  c #C7BA17",
"(  c #C5BA2B",
")  c #D98A2B",
"_  c #B9CC1A",
"`  c #99CC32",
"'  c #ADCF2F",
"]  c #D4C607",
"[  c #C4C918",
"{  c #CCDA18",
"}  c #D7D116",
"|  c #E4D201",
" . c #E9DC04",
".. c #E7D315",
"X. c #E8E308",
"o. c #FDEC01",
"O. c #F6E805",
"+. c #FEF200",
"@. c #E8E514",
"#. c #FBF119",
"$. c #DCD62A",
"%. c #C9C63D",
"&. c #D0CD31",
"*. c #ECD82F",
"=. c #D3E329",
"-. c #EBE426",
";. c #F6EC2A",
":. c #FDF328",
">. c #EBE234",
",. c #FAF033",
"<. c #8C884B",
"1. c #A7974B",
"2. c #A49556",
"3. c #8CB557",
"4. c #8FB149",
"5. c #B0AB4F",
"6. c #8F8F71",
"7. c #86B866",
"8. c #96BD79",
"9. c #8FAD72",
"0. c #B7B473",
"q. c #C8914A",
"w. c #C4BC48",
"e. c #D3BF50",
"r. c #C89064",
"t. c #D0B96C",
"y. c #8BC647",
"u. c #84C657",
"i. c #98CC52",
"p. c #A8CC58",
"a. c #ACD248",
"s. c #8AC463",
"d. c #8AC766",
"f. c #94CB6C",
"g. c #94CB73",
"h. c #9BCD7B",
"j. c #96C779",
"k. c #95CF72",
"l. c #A7C667",
"z. c #BADB65",
"x. c #B7C679",
"c. c #B7D977",
"v. c #A9CF73",
"b. c #D5CB47",
"n. c #CDC750",
"m. c #E4D945",
"M. c #E9CC58",
"N. c #CAE154",
"B. c #EAE547",
"V. c #F4EA45",
"C. c #FEF347",
"Z. c #FAEA57",
"A. c #FCF458",
"S. c #E9E75B",
"D. c #C0DF7F",
"F. c #DADA75",
"G. c #CAD271",
"H. c #DAE870",
"J. c #F6EB6C",
"K. c #FFF463",
"L. c #FFF66B",
"P. c #FFF679",
"I. c #EEE96F",
"U. c #E9D56D",
"Y. c #787B80",
"T. c #76808B",
"R. c #939293",
"E. c #98999B",
"W. c #8F908C",
"Q. c #90AB86",
"!. c #A6AF98",
"~. c #959BA2",
"^. c #96A5B2",
"/. c #A8A8AA",
"(. c #ADB3B2",
"). c #B5B6B7",
"_. c #A9AFB5",
"`. c #AA9192",
"'. c #CAAE8B",
"]. c #D6BA9D",
"[. c #98C985",
"{. c #9CC292",
"}. c #A5CC9A",
"|. c #AED194",
" X c #B5D899",
".X c #ACCE8A",
"XX c #AACBA6",
"oX c #B7D6A8",
"OX c #B3CABE",
"+X c #B5CEB5",
"@X c #BAD1B8",
"#X c #B8C8A5",
"$X c #CCC987",
"%X c #C9C697",
"&X c #D3D78E",
"*X c #E6DF9D",
"=X c #F2E885",
"-X c #EEF289",
";X c #FAF685",
":X c #FDF798",
">X c #EAEA98",
",X c #CDD0B3",
"<X c #E0DEB3",
"1X c #CEE6B8",
"2X c #F3E7A8",
"3X c #F7F4A9",
"4X c #FDF9B8",
"5X c #D3E680",
"6X c #B6CAC2",
"7X c #BACEC4",
"8X c #BDC9C7",
"9X c #BCD0C5",
"0X c #BDC9D4",
"qX c #CBCBCC",
"wX c #C5C6C7",
"eX c #C8D4C9",
"rX c #D2D8CD",
"tX c #CFD2D5",
"yX c #D2D1D2",
"uX c #DBDBDC",
"iX c #DAD7D6",
"pX c #D2CECD",
"aX c #E3DFC9",
"sX c #D7E8C9",
"dX c #FBF8C3",
"fX c #E8E9D6",
"gX c #FFFDDC",
"hX c #F9F8D5",
"jX c #E7EDCD",
"kX c #DCDDE1",
"lX c #E0DFE0",
"zX c #DDE1E4",
"xX c #E3E4E4",
"cX c #EBEBEC",
"vX c #E6EBE7",
"bX c #F9F8E8",
"nX c #F4F4F4",
"mX c #FEFEFE",
"MX c #F9FAF4",
"NX c #ECF3E9",
/* pixels */
"}.+X+X+XXX}.|.|.|.}.}.{.}.oX}.}.oX}.[.j.[.[.z.G.G.c.k.g.g.F F F ",
"F F s.f.[.5XP.P.A.k.f.d.[. Xd..X1Xk.d.[.d.N.K.A.S.v.h.d.d.i.N.F ",
"g.@.` s.9.k.c.>X3.%X8.p.5X#X8.,XI.%X3.j.N.C.,.N.k.k.F a.=.#._ j.",
"u.+.B.u.N m 6 M B 4 2 / <.! R T ! O.7 $.K.S.F h.k.y.@.+.O.@.` XX",
"u.=.~ y u.t A 7.k.6.6.y ).yX%.T 1.jX/.4X4XoX1XsXH.,.@.} c N D 7X",
"j.s.D B A.gX4X;.@.:.-.:.,.dXbXgXgXbXgX3XS.$.-.A.3XhXsXj.` X.a.9X",
" XL.L.>XbX,.Q ).uXxXcXxXcXi $.i i [ p nXuXuXcXxX<.O.;.bX2X>.p.7X",
"XXgX;X:.Y a.mXMXMXmXmXmXmXmXmXmXmXmXmXmXmXmXmXmXmXqX-.O.=XaXh.7X",
"oX4X5.iX. . w qXnXmXmXmXmXmXE.vXmXmX. yX/.mXmXiXlX).O bX> ..p.eX",
"eXdXG.vXmXu R.p O o e w X E.i R.e o pXw W.R.R.  p i R.lX<X/ l.8X",
"@X=X2XMXuX0 o w /.i . E.u + wXw R.q ).q W.e 9 pXq q wXcX].$.v.wX",
"@XF.,XmXO wXw u p lXE.E.cXqXqXqXxXpXlXiXlXcXuXnXxXcXcX>./ G.|.OX",
"7X-X0.tX).mXmXmXmXcXwXmXmXmXmXmXmXmXmXMXMXnXnXnXkX).( | $X%Xv.6X",
"9XhXP.b.I.5.N.B.w.;.! !.cXnXqX6.rXcXxXxX).~ / ~ U } M.<X].w.l.6X",
"eX-XdXhXdX4XjX1X3XgX4XP.Z.V.L.:XL.U Q U ..P.fXsX@X#X.Xb./ / l.6X",
"7XH.G.|.!.W.v.{ :.:.:XdXhXfXNXsXoX|.j.Q.R.&X%X/ s &.5.E E 1.l.6X",
"6Xv.k.Q.t b U.#.+.:.P.L.A. X,X9.1 x q x = 4 c a < / R a U A 3.,X",
"7Xk.h..Xr.f r.t.C.C.C.#.:. X Xh.x.<.7 m ; n 4 a *.( 4.x m l C 7X",
"7Xf.h.t.M.e.5.) q.A.Z.*.b.x.!.v E *.I.F.4.4.7.[  . .| W k l V 8X",
"9Xf.F.G.2.G.0.m.>.2X].q.q.g s 1.f 0.'.'.q.q.g 2.[ | | ^ L z V 7X",
"eXz.A.V.$.] P H G ,.Z.M.c.g.j.n > p.b.U.g 1.7.M c _ ] ^ L K 3.7X",
"9Xz.L.~ v < , J J o.*.F.y.s.u.B _ o.O.b.lXu.l M c c ^ ^ J U 4.7X",
"7Xz.K.%.< < L I , +.+.-Xg.u.C B ` O.o.V.kX*.W.).W.y t @ J U ` 7X",
"7Xz.K.C.Y G H P +.+.+.;Xk.D E._.Z X.O.w.(.T E.p ).0X2 `., Y W 6X",
"6Xc.K.C.,.K G L X.+.$.~.C yXd N N  . .g &X9.).tXE.Y.T.$ j P W OX",
"@X XK.B.;.@.I G , H C.XXrXg 3.xXNX6.U g cX~._.wXW.^.e ; ; v W OX",
"7XD.A.C.Z.-. .X. .] ..7 M 8XiX).xXxXlXpXpXlXiX).~.p - ; ; 3 N OX",
"7Xc.L.,.>X$X$X:X=Xo./ !.pXh ,XwXiXpXlXlXqXE._.~._.t * * ; 3 M OX",
"6Xc.K.C.*X&X*X0.*Xo.} M 6XzXqX/.).).iX`.i /./.~.0 : - ; ; ; N OX",
"OXp.J.C.m.w.e.&.&. .[ x k b W.d @ @ ^.1 & 0 r & * - - ; - k M OX",
"wX@X<X&X=Xb.~ E &.Q Q k ; 5 - % * & * - - - - % % * : : ; ; V OX",
"0XeXeXeXeXwXOX%X%X$Xv.Q.Q.S S n m b l k ; ; ; ; ; b b A S 9.{.wX"
};
