/* XPM */
static char *result[] = {
/* columns rows colors chars-per-pixel */
"32 32 118 2 ",
"   c #21100F",
".  c #241311",
"X  c #291615",
"o  c #2C1816",
"O  c #2F1A18",
"+  c #331E1B",
"@  c #37201E",
"#  c #38211E",
"$  c #3E2522",
"%  c #432926",
"&  c #472B28",
"*  c #4A2E2B",
"=  c #4E312E",
"-  c #523532",
";  c #553935",
":  c #5A3A37",
">  c #5B3C39",
",  c #613F3D",
"<  c #62423E",
"1  c #664541",
"2  c #6A4744",
"3  c #6C4A46",
"4  c #6F4D48",
"5  c #714E4A",
"6  c #75534D",
"7  c #775650",
"8  c #7A5651",
"9  c #7D5C55",
"0  c #7A5D5A",
"q  c #855757",
"w  c #805C56",
"e  c #845D59",
"r  c #8A5B5B",
"t  c #935D5E",
"y  c #84635C",
"u  c #89655F",
"i  c #88685F",
"p  c #955F60",
"a  c #8C6560",
"s  c #876863",
"d  c #8C6B62",
"f  c #956462",
"g  c #9F6063",
"h  c #916D66",
"j  c #996967",
"k  c #956E69",
"l  c #9B6B68",
"z  c #87706D",
"x  c #94726B",
"c  c #9A736E",
"v  c #8B7A77",
"b  c #9B7670",
"n  c #957971",
"m  c #9E7A73",
"M  c #947B79",
"N  c #987F7B",
"B  c #A06164",
"V  c #A1706D",
"C  c #A47672",
"Z  c #A27C76",
"A  c #AA7A76",
"S  c #A37F78",
"D  c #9B817D",
"F  c #A5817A",
"G  c #AA857E",
"H  c #A48A84",
"J  c #AE8A81",
"K  c #B28D84",
"L  c #B28F88",
"P  c #AF948E",
"I  c #B59187",
"U  c #B79289",
"Y  c #B9958C",
"T  c #BB9790",
"R  c #BD9992",
"E  c #B99E98",
"W  c #BDA49D",
"Q  c #BCA6A2",
"!  c #BDACA9",
"~  c #C19D95",
"^  c #C39F98",
"/  c #C5A19A",
"(  c #C9A59E",
")  c #CDA7A1",
"_  c #C4ABA4",
"`  c #CEA9A2",
"'  c #D1ABA5",
"]  c #D5AFA8",
"[  c #C6B0AC",
"{  c #D6B1AB",
"}  c #D9B4AD",
"|  c #C5B6B2",
" . c #CAB7B3",
".. c #C8B8B5",
"X. c #C8BCB9",
"o. c #DBB7B0",
"O. c #D4B9B4",
"+. c #DCB9B2",
"@. c #CBC1BF",
"#. c #D4C2BF",
"$. c #BBCBCC",
"%. c #BFCFD0",
"&. c #C5C0C0",
"*. c #CEC4C1",
"=. c #D1C4C1",
"-. c #DBC6C2",
";. c #D4C9C6",
":. c #D7CBC9",
">. c #DACDCB",
",. c #C2CFD0",
"<. c #C1D1D2",
"1. c #C9D4D5",
"2. c #CCD9DA",
"3. c #DCD6D5",
"4. c #DFD9D7",
"5. c #D3D8D8",
"6. c #E1D9D7",
"7. c #DAE3E3",
/* pixels */
"<.<.0 y =.%.<.<.<.<.<.<.<.<.<.<.<.<.<.<.<.<.<.<.<.<.<.<.<.<.<.<.",
"<.<., 4 6 -.<.<.<.<.<.<.<.<.<.<.<.<.<.<.<.<.<.<.<.<.<.<.<.<.<.<.",
"<.1.* 3 6 9 4.<.<.<.<.<.<.<.<.<.<.<.<.<.%.<.<.<.<.<.<.<.<.4...%.",
"<.<.= 6 9 y y ;.<.<.<.<.<.<.%.<.<.%.<.<.<.<.<.<.<.<.%.4.H e e Q ",
"<.<.; 7 s d s s <.<.<.<.<.<.%.%.<.<.<.<.<.<.<.<.<.<.! h r y y 8 ",
"<.%.2 6 d c h y 8 5.<.<.<.<.<.%.%.<.<.<.<.%.<.<.3.N 9 k s a u P ",
"<.<.D 6 h m c d 9 d *.<.<.<.%.%.%.,.,.,.<.%.<.@.1 9 k C h y f :.",
"<.<.D 8 i h b Z F L U U R L ' >.4.;.0 6 ! &.v : 5 k k c h s j ;.",
"<.%.M i 9 F G G F F J Y ^ o.+.` } / 3 ; . % @ @ 3 s c l a x x >.",
"%.%.$.x c F F c i U ~ ( ' ] } } o.] ( m 1 % O $ , w s j j F G %.",
"$.$.$.h Z m n h I / ( ' ] o.+.+.o.} ) / J 9 * X * 7 7 j C C <.$.",
"$.$.$.J F x h 6 8 9 Y ( ` } +.+.} ] ` / / x < - % ; q p j c $.$.",
"$.$.R T U F ; @   + > T R ] } } ) R / L 3 $ 1 > * * 3 t V J $.$.",
"$.R U Y / K & . . $ > U R ( ' ] R I m X   X @ % $ % > l J Q ,.$.",
"=.Y I U / } y X . < 3 ^ R R / ^ T ) 3 -   X - * X X + $ 6 <.$.<.",
"R I J I / ( ' ( ) L Y Y U Y U R U Y , 1 .   - = 1 - . o % W 1.$.",
"b G G F G Y / / / / Y I G A A A J I Y T ( ] ' T y = =   + z 7.$.",
"x F m F G I G G I G g B C C G C j G T R ` ` ( ( / F Z @ + < <.1.",
"[ F c b Z F F F G Y G C t B B ; r K Y Y U Y Y K I U Y 6 $ ; { %.",
"G h x i i h d x C F C l g t g B G Y I K I G G G d K Y Y i 5 ` 2.",
"h x d i y 6 < < 6 u t u q < B p V Z S c c c F m d c U T U U -.<.",
"W d i i y y 8 5 < < 6 < < < < 6 3 4 5 5 8 9 i x h F I R R ( <.<.",
"@.d d d i y y w r q r y w 8 9 4 5 6 3 2 2 6 6 s h F J T / ` %.1.",
";.d h d d i y y y y y t y y y y y 9 w 5 6 8 y d d x G Y / O.<.%.",
"$.d d i h h h y 9 9 i y y y y 9 7 6 7 7 7 9 d d x n G Y / $.$.,.",
"%.@.i i d h h h d i 0 y 9 7 9 6 4 4 6 7 6 9 h h n F G Y >.$.$.$.",
"$.$.G y i i i h i i i i 9 9 7 7 5 6 7 9 i h F b F I U #.$.$.$.$.",
"$.$.$.D i d i d i i 9 9 9 y 7 9 y y i h c m F G G K / <.$.$.$.$.",
"$.$.$.%.y y i d i i 0 i 9 y 9 9 y y h x D F G G I _ <.<.,.%.$.$.",
"$.$.%.<.%.D d i i i i 9 i y i y y i y F F F G G ..<.<.<.,.%.$.$.",
"$.%.<.<.<.<.| y d i i i y 9 y y i d x x F G W @.,.<.<.<.<.%.%.$.",
"%.<.<.<.<.<.<.%.%.! ! i i d y i i i F @...%.%.<.<.<.<.<.<.,.,.%."
};
