/* XPM */
static char *result[] = {
/* columns rows colors chars-per-pixel */
"32 32 141 2 ",
"   c black",
".  c #0C0000",
"X  c #130000",
"o  c #220000",
"O  c #2B0000",
"+  c #250C00",
"@  c #3C0500",
"#  c #2E1E00",
"$  c #331600",
"%  c #331C00",
"&  c #15220A",
"*  c #292600",
"=  c #401200",
"-  c #451E00",
";  c #4A2600",
":  c #452900",
">  c #4D2D00",
",  c #4C3300",
"<  c #533700",
"1  c #573900",
"2  c #5A3F00",
"3  c #5A420E",
"4  c #534713",
"5  c #624500",
"6  c #684A00",
"7  c #674C17",
"8  c #6C5B17",
"9  c #554C2D",
"0  c #5F563B",
"q  c #685323",
"w  c #6B5D23",
"e  c #68592D",
"r  c #665831",
"t  c #776026",
"y  c #7E6C2D",
"u  c #746232",
"i  c #746F37",
"p  c #7B6831",
"a  c #74663A",
"s  c #776D3E",
"d  c #646142",
"f  c #746B44",
"g  c #7A6D42",
"h  c #7E744D",
"j  c #6A6A51",
"k  c #736D54",
"l  c #786F54",
"z  c #7E7355",
"x  c #77765E",
"c  c #757862",
"v  c #7A7A65",
"b  c #856F4F",
"n  c #817440",
"m  c #807248",
"M  c #807948",
"N  c #8C7E4D",
"B  c #837754",
"V  c #867B55",
"C  c #837E61",
"Z  c #8B815C",
"A  c #848060",
"S  c #8C8463",
"D  c #83816B",
"F  c #8B8468",
"G  c #938C6C",
"H  c #8E8970",
"J  c #858C78",
"K  c #8B8C78",
"L  c #938D71",
"P  c #959173",
"I  c #989475",
"U  c #95917B",
"Y  c #99957B",
"T  c #9C997D",
"R  c #728480",
"E  c #738E8D",
"W  c #76908F",
"Q  c #7A918D",
"!  c #769291",
"~  c #7B9493",
"^  c #7D9897",
"/  c #7E9798",
"(  c #7F9999",
")  c #949481",
"_  c #9A9782",
"`  c #9D9B84",
"'  c #939A8B",
"]  c #9D9D8A",
"[  c #809794",
"{  c #819996",
"}  c #8E9B95",
"|  c #849D9C",
" . c #899E9D",
".. c #A19C85",
"X. c #A19F8A",
"o. c #84A09F",
"O. c #8AA19F",
"+. c #95A195",
"@. c #97A299",
"#. c #A2A28C",
"$. c #A9A88E",
"%. c #A4A593",
"&. c #A8A694",
"*. c #A8A997",
"=. c #A5AA9C",
"-. c #A9AC9B",
";. c #889FA0",
":. c #87A1A1",
">. c #8BA4A4",
",. c #8EA7A8",
"<. c #8EA8A8",
"1. c #91A6A5",
"2. c #94A9A7",
"3. c #9CAAA7",
"4. c #90A7A8",
"5. c #94ABAB",
"6. c #99AEAD",
"7. c #9AB0AF",
"8. c #96AFB0",
"9. c #99AFB0",
"0. c #97B0B0",
"q. c #9CB3B3",
"w. c #9FB7B8",
"e. c #AEB2A4",
"r. c #A5B3AE",
"t. c #B2B7AB",
"y. c #A2B6B5",
"u. c #A6B8B7",
"i. c #A2B7B8",
"p. c #A5BABB",
"a. c #ABBDBC",
"s. c #AABFC1",
"d. c #AFC2C2",
"f. c #B2C3C3",
"g. c #B8C6C5",
"h. c #B4C7C8",
"j. c #B6C8C8",
"k. c #BBCBCC",
"l. c #BFCFD0",
"z. c #BFD0D1",
"x. c #C1D1D2",
/* pixels */
"x.x.x.x.x.x.x.x.x.x.x.x.k.h.k.k.k.g.f.x.x.x.x.x.x.x.x.x.x.x.x.x.",
"x.x.x.x.x.x.x.x.x.x.j.u.` =.Q +.U ` @.f.u.x.x.x.x.x.x.x.x.x.x.x.",
"x.x.x.x.x.x.x.x.d.u.a.t.t.-.*.%.*.T t $.=.G ' z.x.x.x.x.x.x.x.x.",
"x.x.x.x.x.x.x.r.' ' =.e.-.Z P ` *.) S #.` T _ @.d.x.x.x.x.x.x.x.",
"x.x.x.x.x.x.d.c -.-.V #.-.-.*.-.Y U a ` X.T L J a.a.x.x.x.x.x.x.",
"x.x.x.x.x.x.7.j %.&.I G *.*.S ` z U X.e.&.L _ ] #.v x.x.x.x.x.x.",
"x.x.x.x.k.5.=.&.: %.] Y *.I F ..o C G T n ] L Y g x 1.k.z.x.x.x.",
"x.x.k.x.k.5.; 6 G T ] ; G , L w O U y u $.@ . S L ] 2.k.k.z.x.x.",
"x.x.k.k.j.6.  %.&.A Y e.=.G ` M u N z &.o &.V O 4 5 2.k.k.k.x.x.",
"x.k.k.k.i.5.k L V %.%.T ) m ..B ) Z U q I L > L +   >.i.k.k.k.x.",
"k.k.k.k.5.5.5.e - P B V V X V < ` C 5 X S p Y g 9 & 5.5.k.k.k.k.",
"k.k.k.u.2.4.u.' F f f h m C n 8 ..: S F 2 _ C U l 3.4.5.y.k.k.k.",
"k.k.q.,.4.5.5.i.K $ + * L ` ) ] ] g ` 7 ] p a B R 8.8.,.>.9.l.k.",
"k.k./ 9.5.q.5.:.a.} L * = ` 0 f < r i 1 _ b X y.;.5.9.8.9.[ k.k.",
"k.| { q.q.q.<.:.q.u.u.3.H s C @ ..% < 3 d 3.q.q.;.,.q.q.9./ | k.",
"k.| ;.q.q.q.>.,.i.q.2.5.u.u.u.r.r.r.6.y.2.5.q.w.,.>.q.q.q.;.;.k.",
"0.o.<.q.q.q.o.0.s.q.>.o.<.2.| ^ | 1.6.1.( <.q.p.8.( q.q.q.<.:.q.",
"8.>.<.q.w.0.( q.a.q.>.>.5.1.| ^ | :.5.7.<.:.w.s.w.( 0.q.q.<.,.0.",
"8.o.0.q.q.<.:.p.s.w.,.>.6.1.O.( ( O.1.5.,.<.p.p.p.<.<.0.q.5.:.0.",
"8.>.0.q.0.( ,.u.a.p.,.5.5.2.| ~ ~ O.3.7.5.<.w.a.p.<.^ 0.0.8.,.8.",
"0.<.q.0.<.W o.u.p.w.,.<.6.2.{ E W o.2.7.1.<.w.a.i.| ! 2.0.q.5.0.",
"q.8.0.0.O.W | q.p.q.<.5.6.>.[ Q Q ^ 1.7.2.<.w.u.q.;.W O.8.0.5.w.",
"x.<.>.0.^ W >.7.w.q.<.5.2. .~ E Q ^ O.5.5.<.q.q.q.>.W ^ 0.>.5.z.",
"x.5.<.5.^ ~ 5.q.7.<.,.5.1. .~ Q Q { O.@.5.<.5.q.q.2.! ^ 5.>.5.z.",
"k.k.2.>.0.{ 9.9.6.:.;.:.2. .~ ~ ~ / @.1.;.| :.6.q.5./ 6.>.4.k.k.",
"k.k.5.1.:.q.q.i.q.| /  .>. .~ Q ! {  .O.;.{ ;.q.q.q.9.>.4.6.k.k.",
"k.k.k.7.2.2.i.p.q.| [  .O. .Q ! ~ [  . . .( | 9.a.y.4.4.9.k.k.k.",
"k.k.k.k.q.q.6.6.i.0.:.| {  .Q ~ [ |  . .| :.9.i.5.0.i.0.k.k.k.k.",
"k.k.l.z.x.q.s.0.6.6.i.a.7.6.O.! | 6.6.y.s.i.5.5.9.p.p.x.x.k.k.k.",
"k.k.l.x.x.x.z.;.q.i.i.y.a.a.u.p.u.a.a.a.y.q.i.y.~ x.x.x.x.k.k.k.",
"k.l.x.x.x.x.z.z.z.k.~ 1.g.a.a.p.a.a.g.f.5.W l.l.x.x.x.x.x.x.x.k.",
"z.z.x.x.x.x.x.x.x.x.z.x.a.f.f.i.a.f.f.a.x.l.l.x.x.x.x.x.x.x.x.x."
};
