/* XPM */
static char *result[] = {
/* columns rows colors chars-per-pixel */
"32 32 159 2 ",
"   c #2F3138",
".  c #333336",
"X  c #34363D",
"o  c #393941",
"O  c #494B50",
"+  c #575351",
"@  c #595859",
"#  c #565A67",
"$  c #645D61",
"%  c #656264",
"&  c #6D6A67",
"*  c #6E6E6F",
"=  c #766F67",
"-  c #716B68",
";  c #7C776F",
":  c #7F786C",
">  c #6D6E73",
",  c #747474",
"<  c #7B7675",
"1  c #7E7973",
"2  c #7D7B7A",
"3  c #80776E",
"4  c #80786E",
"5  c #837C73",
"6  c #827D7B",
"7  c #878076",
"8  c #84817D",
"9  c #8A837D",
"0  c #8D897F",
"q  c #A08F7F",
"w  c #7E7D81",
"e  c #827F83",
"r  c #848282",
"t  c #8A8583",
"y  c #8C8884",
"u  c #8D8A8A",
"i  c #948B84",
"p  c #998D82",
"a  c #928E8B",
"s  c #9C9084",
"d  c #95908E",
"f  c #9B948D",
"g  c #8E8B90",
"h  c #918E90",
"j  c #8E929D",
"k  c #959292",
"l  c #999594",
"z  c #9D9996",
"x  c #969598",
"c  c #97989E",
"v  c #9D9B9B",
"b  c #A59380",
"n  c #A59886",
"m  c #A69B8F",
"M  c #A09793",
"N  c #A49C93",
"B  c #A99F95",
"V  c #A29E9D",
"C  c #B5A48F",
"Z  c #AAA094",
"A  c #A5A19E",
"S  c #ADA49C",
"D  c #B0A399",
"F  c #B6AB9E",
"G  c #BCAD9B",
"H  c #BFB09E",
"J  c #A19FA1",
"K  c #A5A3A3",
"L  c #A9A6A5",
"P  c #A6A9A5",
"I  c #ADA9A5",
"U  c #A9A7AA",
"Y  c #A6A8AE",
"T  c #ADABAA",
"R  c #B7ADA2",
"E  c #B1AEAC",
"W  c #B6B0A7",
"Q  c #BDB2A4",
"!  c #B5B1AD",
"~  c #BBB4AC",
"^  c #AFAEB2",
"/  c #B2AFB1",
"(  c #B5B3B2",
")  c #BAB6B4",
"_  c #BBB9B6",
"`  c #B8B6B8",
"'  c #BDBCBC",
"]  c #C2AF9B",
"[  c #C5B59E",
"{  c #C9B59F",
"}  c #C2B6A5",
"|  c #C8B7A0",
" . c #CBBAA1",
".. c #C5B9A9",
"X. c #CABDAC",
"o. c #C4BBB4",
"O. c #CBBFB0",
"+. c #C2BFBD",
"@. c #D5C4A5",
"#. c #D3C4AC",
"$. c #D9C6A8",
"%. c #DECDAC",
"&. c #CEC2B2",
"*. c #C2C0BF",
"=. c #CAC3BF",
"-. c #D3C7B6",
";. c #DCCEB3",
":. c #D2C8BC",
">. c #DACEBB",
",. c #DED2BC",
"<. c #E0D0B0",
"1. c #E3D7BF",
"2. c #BCBDC2",
"3. c #C1BFC1",
"4. c #BBCBCC",
"5. c #BFCFD0",
"6. c #C5C3C2",
"7. c #C9C6C5",
"8. c #CCC9C4",
"9. c #C8C7C8",
"0. c #CDCBCB",
"q. c #D4CCC4",
"w. c #D2CECC",
"e. c #DDD3C6",
"r. c #D4D1CF",
"t. c #DBD5CB",
"y. c #DFD9CF",
"u. c #CECDD0",
"i. c #C1D1D2",
"p. c #C9D6D7",
"a. c #CCD7D8",
"s. c #CED9DA",
"d. c #D4D3D3",
"f. c #D8D6D6",
"g. c #DCD8D4",
"h. c #D7D6D8",
"j. c #D8D6D8",
"k. c #D3DBDC",
"l. c #DBDBDB",
"z. c #E2D5C4",
"x. c #E3D9C7",
"c. c #E8DCC4",
"v. c #E7DCC8",
"b. c #E4DED7",
"n. c #E2DEDC",
"m. c #F1E0C7",
"M. c #EAE1D3",
"N. c #E7E0D9",
"B. c #EAE4DE",
"V. c #F1EBDF",
"C. c #E5E3E4",
"Z. c #E9E5E5",
"A. c #ECEAEB",
"S. c #F3F2F3",
"D. c #F8F5F4",
"F. c #F5F6F8",
"G. c #FAF6FB",
"H. c #F7F8F9",
"J. c #FCFDFD",
/* pixels */
"i.i.i.i.i.i.i.i.i.i.i.i.a.S.S.l.l.C.S.S.p.5.i.i.i.i.i.i.i.i.i.i.",
"i.i.i.i.i.i.i.i.i.i.0.j.l.l.l.j.l.j.l.l.l.l.h.5.i.i.i.i.i.i.i.i.",
"i.i.i.i.i.i.i.l.l.l.d.p.j.6.` _ o.~ ) 0.j.0.j.l.l.i.i.i.i.i.i.i.",
"i.i.i.i.i.p.h.l.u.+.w.9._ d.R y f F F S N K l / h.l.a.i.i.i.i.i.",
"i.i.i.i.s.h.f.+.E ! I z d ( g * = N k k z Z N J k ' l.k.i.5.i.i.",
"i.i.i.i.l.h.K v ] { Z Z _ d.t.>.1.m.#.Q S m S G Z t T l.l.5.i.i.",
"i.i.k.h.r.f d m C O.f.h.h.=.o.X.@.;. .[ p 2 g.{ i p r J l.l.i.i.",
"i.i.9.l.l M n f y U l.w.' ) ~  .@.$.G Z f t c +.q p p < ( C.i.i.",
"i.n.l.K a b N + 2 ) T T E ~ Q | @.%.H N f u _ V * p ! 9 % d.l.i.",
"i.9.d.f 9 f S.2 x J K U ( ~ Q | $.%.G Z f u ' T r k M c < z C.4.",
"i.l.v < < p.d.h x V K L / ! R [ @.<.H Z f u ( T r t ` 2.1 < l.h.",
"d.l.l & + ^ ( u k c J K T ! R [ @.%.H Z f u T T r r k J 2 & r.l.",
"d.l.y > % A.2.y k v K K U ! Q } #.;.Q Z f u A T e r g r X 9 6.u.",
"6.d.8 Y u C.9.r l c v K 9.0.=.:.,.c.>...z y v T 8 r g J . u *.0.",
"6.f.t O e T 9.r k x U 3.j.l.Z.j.E ( A =.8.z J P r 8 u t o t 9.d.",
"d.f.t # e u d.2 u l ` n.M.e.7.g.C.A.H.J.J.H.2.^ u 8 g u . r d.d.",
"J l.l j r r C., $ w.V.-.8.7.w.l.C.A.S.J.J.J.S.C.> 2 g u . v l.l.",
"5.0.T v w 8 l.d q.z.O.~ 7.8.w.l.C.A.S.H.J.J.A.C.u.2 u u @ ( h.5.",
"i.L h.a w 6 2.r.z.O.} ! 7.7.w.g.C.A.S.H.J.J.A.l.h.K u r V h.k i.",
"i.k.0.6.l 2 0.v.O...~ W +.7.0.l.C.A.S.H.J.J.A.n.d.9.g g 9.( i.i.",
"i.i.l h.L k t.>.X...~ R =.L 6.7.A.A.S.N.J.H.Z.n.r.) d ' f.k.i.i.",
"i.i.5.v d.K a Q X...Q ~ +.7.w.d.C.C.A.S.d.S.A.f.E u ) 9.v i.i.i.",
"i.5.4.4.6 d.( t M } X.>.,.q.q.w.d.l.Z.S.D.D.l.V V 9.6.< 4.4.5.i.",
"5.4.4.4.4.t _ u.L z J x.b.B.B.B.B.B.N.b.t.v v _ s.8 9 9.4.4.4.5.",
"4.4.4.4.4.4.< 8 ` 9._ ` K ! ) ) *.) T K ( *.0.6.6 7 y l.4.4.4.4.",
"4.4.4.4.4.4.0 t a v *.r.9.9.7.6.=.0.9.' h.T d.t 7 5 y 4.4.4.4.4.",
"4.4.4.4.4.4.r.1 a v J K l Z.H.J.H.A.u i t y 9 7 : 7 P 4.4.4.4.4.",
"4.4.4.4.5.5.5.0 8 h v K ! ` ) ) E L l i y 9 7 1 : 6 5.5.4.4.4.4.",
"4.4.5.5.i.i.5.5.L t h N E ) ) ( T L l a 0 8 4 : 6 p.i.i.4.4.4.4.",
"4.4.5.i.i.i.i.i.5.N y h z J L I A N a t 8 7 4 i 5.i.i.i.5.5.4.4.",
"4.5.i.i.i.i.i.i.i.4.i.t a h k k d a y t 8 ; *.i.5.i.i.i.i.i.5.4.",
"5.5.i.i.i.i.i.i.i.i.i.i.d.d.z y t t k w.d.5.5.i.i.i.i.i.i.i.i.i."
};
