/* XPM */
static char *_0704e361a684d5cfaf95de95ece57aamLTLRjhpUVf8Eae1[] = {
/* columns rows colors chars-per-pixel */
"32 32 7 1 ",
"  c #BBCBCC",
". c #BCCBCC",
"X c #BCCCCD",
"o c #BDCDCE",
"O c #BFCFD0",
"+ c #BFD0D1",
"@ c #C1D1D2",
/* pixels */
"@@@@@@@@@@@@@@@@@@@@@@@@@@@@@@@@",
"@@@@@@@@@@@@@@@@@@@@@@@@@@@@@@@@",
"@@@@@@@@@@@@@@@@@@@@@@@@@@@@@@@@",
"@@@@@@@@@@@@@@@@@@@@@@@@@@@@@@@@",
"@@@@@@@@@@@@@@@@@@@@@@@@@@@@@@@@",
"@@@@+O@@@@@@@@@OO@@@@@@@@@O+@@@@",
"@@@Oooo@@@@@@@oooO@@@@@@Oo.o+@@@",
"@@+.  .o@@@@@Oo   O@@@@+oo  o+@@",
"@@      o@@@oo    oO@@@o.    oO@",
"@       oo@O        O@O        @",
"o         o          o         o",
"                                ",
"               o          o     ",
"   oo@o        @Oo       oOO    ",
"  oo@@@o     oo@@O      o@@@oo  ",
"  o@@@@Oo   oO@@@@Oo   oO@@@@o  ",
"oo@@@@@@Oo o@@@@@@@@o o@@@@@@@oo",
"O@@@@@@@@@o@@@@@@@@@@oO@@@@@@@@O",
"@@@@@@@@@@@@@@@@@@@@@@@@@@@@@@@@",
"@@@@@oO@@@@@@@@oo@@@@@@@@Oo@@@@@",
"@@@@  o@@@@@@@o oo@@@@@@@o  @@@@",
"@@@    o@@@@@Oo   O@@@@@o    @@@",
"@o      o@@@O      O@@Oo     oo@",
"@o       o@o        O@o        @",
"          o          .         o",
"                           .    ",
"     o         oo        .oo    ",
"   oO@oo      oO@o       o@o    ",
"  o+@@@o.    o@@@Oo    ooO@@Oo  ",
" oo@@@@@O   oO@@@@@o   o@@@@@O  ",
" @@@@@@@@O o@@@@@@@@o O@@@@@@@@ ",
"O@@@@@@@@@O@@@@@@@@@@@@@@@@@@@@@"
};
