/* XPM */
static char *_a4063b83adb4311e34f02a486d2eed5XecuKVYzR92Dnb8d[] = {
/* columns rows colors chars-per-pixel */
"32 32 193 2 ",
"   c #0D0C0B",
".  c #050404",
"X  c #100F0D",
"o  c #0F110E",
"O  c #12100F",
"+  c #0F1011",
"@  c #151513",
"#  c #191716",
"$  c #171A17",
"%  c #1A1A16",
"&  c #17181A",
"*  c #1B1C1A",
"=  c #151618",
"-  c #201E1C",
";  c #271715",
":  c #1D211C",
">  c #23221D",
",  c #2C291E",
"<  c #1F1E21",
"1  c #1E2223",
"2  c #232422",
"3  c #2A2622",
"4  c #262926",
"5  c #2C2A25",
"6  c #262929",
"7  c #2B2B2B",
"8  c #332E22",
"9  c #322E29",
"0  c #313027",
"q  c #37332C",
"w  c #2D2F31",
"e  c #2E3131",
"r  c #373634",
"t  c #3B3C3B",
"y  c #35373A",
"u  c #433D2E",
"i  c #523620",
"p  c #433F33",
"a  c #4E3B38",
"s  c #533938",
"d  c #48402F",
"f  c #4B4436",
"g  c #45433B",
"h  c #464234",
"j  c #5C513B",
"k  c #584B2F",
"l  c #76542A",
"z  c #3B3E40",
"x  c #3D4142",
"c  c #444242",
"v  c #494945",
"b  c #464A4B",
"n  c #4D4C4B",
"m  c #434648",
"M  c #52514F",
"N  c #5F5642",
"B  c #494C51",
"V  c #4E5153",
"C  c #545452",
"Z  c #5C5B54",
"A  c #555A5D",
"S  c #56585B",
"D  c #665A45",
"F  c #6A634A",
"G  c #786644",
"H  c #68645C",
"J  c #796D56",
"K  c #595E62",
"L  c #5C6164",
"P  c #626566",
"I  c #616669",
"U  c #646A6D",
"Y  c #6C6D6E",
"T  c #676C70",
"R  c #6D7276",
"E  c #757A7E",
"W  c #797A77",
"Q  c #976D35",
"!  c #9C723E",
"~  c #9F6728",
"^  c #A47433",
"/  c #A7752F",
"(  c #806C46",
")  c #86724B",
"_  c #867754",
"`  c #8C7F60",
"'  c #B88B3B",
"]  c #C49339",
"[  c #95845A",
"{  c #9B855A",
"}  c #AE8B47",
"|  c #BA9241",
" . c #BE9A4B",
".. c #A38B51",
"X. c #BC9B55",
"o. c #AE8D51",
"O. c #918C7F",
"+. c #908B74",
"@. c #A89769",
"#. c #AB996B",
"$. c #AA9262",
"%. c #B89C67",
"&. c #AB9B76",
"*. c #BCA56B",
"=. c #B9A66F",
"-. c #BDA974",
";. c #B9A378",
":. c #C49C4B",
">. c #C39843",
",. c #C39D53",
"<. c #CFA047",
"1. c #D6A64D",
"2. c #CBA455",
"3. c #C5A45C",
"4. c #CBA65A",
"5. c #CDA85A",
"6. c #D1AB5A",
"7. c #C3A563",
"8. c #CDAC62",
"9. c #CEAC6B",
"0. c #C0AA6E",
"q. c #D1AC66",
"w. c #C3AD7C",
"e. c #C8A773",
"r. c #C4B17F",
"t. c #CBB47B",
"y. c #CBB277",
"u. c #D2B67B",
"i. c #DBBC7E",
"p. c #DBB975",
"a. c #D9B46C",
"s. c #E2BE7C",
"d. c #E2C07F",
"f. c #675B98",
"g. c #7A7F82",
"h. c #7F8488",
"j. c #7C8285",
"k. c #81868B",
"l. c #83898D",
"z. c #8A8B8B",
"x. c #828484",
"c. c #948E81",
"v. c #868C91",
"b. c #898E92",
"n. c #8D9298",
"m. c #9D9D9D",
"M. c #919392",
"N. c #92958D",
"B. c #A69A87",
"V. c #BAAD88",
"C. c #BFBB9D",
"Z. c #A6A6A7",
"A. c #AEAEAE",
"S. c #B1B0AF",
"D. c #C6B482",
"F. c #CCBB86",
"G. c #CABA8C",
"H. c #C6B78A",
"J. c #D2BB83",
"K. c #DBBB83",
"L. c #D3BC8B",
"P. c #DFBF8C",
"I. c #D8B787",
"U. c #CEBF91",
"Y. c #DCBF92",
"T. c #C7AE83",
"R. c #E0BD87",
"E. c #C3BEA2",
"W. c #DBC288",
"Q. c #CDC399",
"!. c #D4C49A",
"~. c #D6C697",
"^. c #E4C586",
"/. c #E5CA95",
"(. c #CDC7A2",
"). c #D8CAAA",
"_. c #DBD1A7",
"`. c #E4CEA4",
"'. c #E8DCBA",
"]. c #E8D6A4",
"[. c #BCCCCD",
"{. c #BFCFD0",
"}. c #BFD0D1",
"|. c #C1C6C7",
" X c #D5D3CE",
".X c #C2CFD0",
"XX c #C1D1D2",
"oX c #CFD0D1",
"OX c #D7D6D3",
"+X c #E9DFCB",
"@X c #ECD0C5",
"#X c #EAE3C5",
"$X c #E9E5D4",
/* pixels */
"XXXXXXXXXXXXXXXX}.}.XXXXXXXXXX#XOXXXXXXXXXXXXXXXXXXXXXXXXXXXXXXX",
"XXXXXXXXXXXX} ~.}.}.XXXXXXXXXX6.].XXXXXXXXXXXXXXXXXXXXXXXXXXXXXX",
"XXXXXXXX.X+XQ o.W.}.}.}.XXXXI.' /.XXXXXXXXXXXXXXXXXXXXXXXXXXXXXX",
"XXXXXXXX.Xe.! ! } 9._.8.6.<.1.1.W.XXXXXXXXXXXXXXXXXXXXXXXXXXXXXX",
"XXXXXXXX.X).Q i } ~ >.2.5.' <.u.d.`.oXXXXXXXXXXXXXXX}.}.XXXXXXXX",
"XXXXXX.X.X.X} l l ,.<.X.%.7.' i.p.d.d.$XXXXXXXXXXX}.}.}.XXXXXXXX",
"XXXX.X{..X/.^ | 8.5.| 2. .t.X.u.a.k J./.XXXXXXXXXX}.[.{.XXXXXXXX",
"XXXX{.[.{.q.~ 5.8.3.X.{ G ..8.p.o.j ~.'.XXXXXXXX{.[.[.[.}.XXXXXX",
"XX{.{.[.[.4.:.t.F.W.F.D g [ 5.d.^.^.W.#X'.}.{.[.[.[.[.[.[.[.[.{.",
"}.{.[.[.$X5.8.L.~.(.~.t.y.t.u.~.F g Z (.#X{.{.[.[.[.[.[.[.[.[.{.",
"[.[.[.[.'.2.3.D.Q.!.Q._.(.~.Q.(.v % q C.).OX[.[.[.[.[.[.[.[.[.[.",
"[.[.[.[.9. . .t.t.V.G.U.H.H.0.V.+.h N G f.@X[.[.[.[.[.[.[.[.[.[.",
"[.[.[.[.,.:. .t.G.F.F.V.=._ [ G j > F Q.'.{.[.[.[.[.[.[.[.[.[.[.",
"[.[.[.).:.' ' 3.t.D.D.r.#.[ o.$.@.G W._.#X[.[.[.[.{.}.{.[.[.[.[.",
"[.[.[.H.H Z J k G -.D.H.-.=.=.0.y.F.W.W.[.[.[.[.[.{.}.XX[.[.[.[.",
"[.[.[.l.k.U c 9 , q @.D.-.7.0.0.=.@.@.@. X[.[.{.}.}.}.{.{.[.[.[.",
"{.}.m.j.v.l.x 0 8 > > 8 0 p f a 8 @ & < n .X{.{.XXXXXXXXXXXX{.{.",
"}.}.L V h.h.1 : % % > % & 2 5 9 , o & 1 t k..X.XXXXXXXXXXXXX}.{.",
"}.m.B E h.L 6 : @ : * 7 = 6 6 9 9 - + 6 t g.Z..XXXXXXX}.XXXXXXXX",
"}.z.L U b.x 4 1 , : & 7 * r r 3 3 *   1 w P Y .XXX.X{.{.XXXXXXXX",
"XXY B R h.b 1 > : @ O r &   S % @ @ @ 2 w L L oX.X[.[.[.}.XXXXXX",
"XXj.h.U T g.U 7   o .   - # n n # 2   c S - K |.[.[.[.[.{.{.XXXX",
"}.b.l.l.L U n.g.S b 4 , t * + ; - * t 3 Y x v 9 p oXm..X[.K {.XX",
"}.B x V L L h.l.b.n.n.;.P.J 7 a s 3 3 +   r n n B C X * 2 . {.{.",
"}.h.m y S R L U T l.v.+.R.R.I.p q 3 9 e 7 @ * 2 7 7 7 r *   XX[.",
"[.{.{.M x b S K K l.v.O.i.R./.Y.D @ @ 9 C Z x.z Z.[.A.W m 7 y p ",
"[.[.[.c $ : 6 x P Z W &.i.I.Y.V.D * h T.N.b.A R |.[.[.[.[.[.[.[.",
"[.[.[.b * $ & 2 5 5 j ) %.w.#.f * p ;.^.T.c.I h.|.{..X.X[.[.[.[.",
"[.[.[.C 2 o $ 1 : $ * & * > h 3 X D Y.Y.K.e.B.[.{.{.XXXX{.[.[.[.",
"[.[.[.C * & @ $ 2 4 2 : * * : * % * f ` J c.[..X{.XXXXXX.X{.[.[.",
"[..XXXL e 7 6 7 y M z. XXXXXXXXXXXXXXXC b [.{.XXXXXXXXXXXXXX{.[.",
"}.XXXXXXXXXXXXXXXXXXXXXXXXXXXXXXXXXX{.z.S.XXXXXXXXXXXXXXXXXX.X{."
};
